:SAMPLES-PER-SECOND 30
:FRAME-RANGE 1-2775
:FULLY-SPECIFIED
:DEGREES
1301
root  -27.6594 38.8034 -57.7288 13.3444 -67.7739 -5.14951
RightUpLeg  -15.7738 -3.63845 -9.56451
RightLeg  16.5881 -1.03624 -0.552492
RightFoot  -9.21424 -0.333607 14.5071
RightToes  1.218e-010 1.26228e-014 -6.01869e-014
Spine  -6.32558 0.164695 -0.122109
Spine1  9.38663 0.40024 -1.49147
HEad  0.461025 49.3837 -6.9333
LeftShoulder1  1.08311 -0.57452 -21.8134
LeftArm  -1.03211 4.69999 -43.2307
LeftForeArm  29.3023 1.371 -12.8225
LeftHand  -0.00506714 5.8521 5.2347
RightShoulder  1.38906 0.808688 27.7479
RightArm  -35.2368 -6.28412 48.7698
RightForeArm  53.5649 -5.03008 -1.44439
RightHand  0.0433598 -5.77545 -17.185
LeftUpLeg  -2.53562 11.1176 15.0227
LeftLeg  12.0961 14.8211 4.38718
LeftFoot  -8.72526 0.47915 -18.5663
LeftToes  5.08156e-010 -6.90346e-011 -6.33378e-011
1302
root  -28.5359 38.8074 -58.3495 15.017 -67.7729 -7.00177
RightUpLeg  -15.4717 -4.34741 -7.38365
RightLeg  17.8085 -0.0813813 -0.235795
RightFoot  -10.0712 -0.208389 12.5553
RightToes  1.218e-010 1.26228e-014 -6.01869e-014
Spine  -6.47895 0.323563 0.595348
Spine1  9.7379 0.318273 -0.636773
HEad  -0.846455 52.7874 -9.07294
LeftShoulder1  1.00448 -0.395247 -20.9891
LeftArm  -1.61381 4.94205 -43.9273
LeftForeArm  26.2363 0.867931 -12.6044
LeftHand  -0.0119932 5.62167 6.00579
RightShoulder  1.41608 0.855884 28.0269
RightArm  -35.9503 -7.17069 47.4555
RightForeArm  54.7764 -4.89044 -2.04069
RightHand  0.103758 -6.21529 -16.7116
LeftUpLeg  -2.7283 10.5758 16.6973
LeftLeg  14.0214 17.4269 6.13672
LeftFoot  -6.44168 0.804117 -17.7743
LeftToes  5.08156e-010 -6.90346e-011 -6.33378e-011
1303
root  -29.3963 38.928 -58.8928 14.6807 -67.0459 -6.69489
RightUpLeg  -14.3446 -4.4993 -5.91407
RightLeg  17.9096 -1.01418 -0.574537
RightFoot  -10.8323 -0.125692 11.6358
RightToes  1.218e-010 1.26228e-014 -6.01869e-014
Spine  -6.27693 0.233297 0.607968
Spine1  9.50178 0.107141 -0.0628963
HEad  -0.938709 54.8244 -9.68653
LeftShoulder1  0.9438 -0.228798 -20.5195
LeftArm  -1.33063 5.41217 -44.1724
LeftForeArm  25.0879 -0.0707757 -12.6598
LeftHand  -0.00445812 5.7733 6.08973
RightShoulder  1.37922 0.658988 28.8032
RightArm  -36.4022 -7.47283 45.7618
RightForeArm  56.6194 -4.73477 -2.60831
RightHand  0.19027 -6.86834 -16.2636
LeftUpLeg  -4.52046 8.08911 16.7826
LeftLeg  18.3672 23.0383 9.06722
LeftFoot  -4.45474 0.540257 -8.52511
LeftToes  5.08156e-010 -6.90346e-011 -6.33378e-011
1304
root  -30.1841 39.0087 -59.2678 14.3258 -65.7147 -6.38687
RightUpLeg  -12.8561 -5.07124 -4.71981
RightLeg  17.5456 -1.8331 -0.856721
RightFoot  -11.5935 -0.0538194 11.4063
RightToes  1.218e-010 1.26228e-014 -6.01869e-014
Spine  -6.03093 0.241464 1.4999
Spine1  9.33904 0.0502063 0.385444
HEad  -1.39117 55.9566 -10.5213
LeftShoulder1  0.889057 -0.0423659 -20.36
LeftArm  -0.687298 5.51047 -44.5293
LeftForeArm  26.3191 -0.502937 -12.8021
LeftHand  -0.014472 5.61776 5.73113
RightShoulder  1.3307 0.510241 28.8822
RightArm  -37.3196 -8.34277 44.9583
RightForeArm  59.0985 -4.52639 -3.34476
RightHand  0.260777 -7.45449 -15.7182
LeftUpLeg  -7.62856 8.76185 16.4437
LeftLeg  24.1393 23.2572 11.2581
LeftFoot  -5.38796 0.120716 -1.69873
LeftToes  5.08156e-010 -6.90346e-011 -6.33378e-011
1305
root  -30.9185 39.0416 -59.5019 13.2394 -64.227 -5.38712
RightUpLeg  -11.4207 -6.43504 -4.22561
RightLeg  17.6001 -1.80196 -0.776865
RightFoot  -12.7071 0.029822 9.7354
RightToes  1.218e-010 1.26228e-014 -6.01869e-014
Spine  -5.53248 0.486354 2.95756
Spine1  9.12113 0.428914 0.151666
HEad  -1.99994 55.9328 -11.3626
LeftShoulder1  0.850168 0.104927 -20.3668
LeftArm  -0.0243332 5.56806 -45.1399
LeftForeArm  28.2729 -0.682021 -12.9547
LeftHand  -0.0212734 5.44375 5.43682
RightShoulder  1.32444 0.520799 28.6144
RightArm  -37.8046 -9.86994 44.5583
RightForeArm  60.8205 -4.41743 -3.63811
RightHand  0.538066 -9.70071 -15.1266
LeftUpLeg  -11.0282 9.9881 14.9417
LeftLeg  28.9265 16.8748 10.1792
LeftFoot  -9.03371 0.104629 -2.50348
LeftToes  5.08156e-010 -6.90346e-011 -6.33378e-011
1306
root  -31.6127 39.0593 -59.6257 11.7503 -63.1684 -3.88257
RightUpLeg  -10.1326 -7.14738 -4.25985
RightLeg  17.7017 -2.19153 -0.800434
RightFoot  -13.6976 0.0988011 9.31534
RightToes  1.218e-010 1.26228e-014 -6.01869e-014
Spine  -4.76988 1.05751 4.58601
Spine1  8.63243 1.31354 -0.929112
HEad  -3.07369 55.2464 -12.7229
LeftShoulder1  0.741907 0.550981 -20.7619
LeftArm  0.786408 5.67074 -45.7043
LeftForeArm  29.6057 -0.769746 -13.1533
LeftHand  -0.0133953 5.64213 5.28568
RightShoulder  1.38923 0.756607 28.1985
RightArm  -37.6169 -11.5492 44.2632
RightForeArm  63.1131 -4.37105 -3.44922
RightHand  0.595601 -10.4768 -14.2101
LeftUpLeg  -14.4434 9.29649 12.2793
LeftLeg  33.0038 12.4437 8.91365
LeftFoot  -10.746 0.0795852 -2.91489
LeftToes  5.08156e-010 -6.90346e-011 -6.33378e-011
